<svg xmlns="http://www.w3.org/2000/svg" width="48" height="48" viewBox="0 0 48 48"><defs><style>.a{opacity:0;}</style></defs><g transform="translate(0.027 0.027)"><rect class="a" width="48" height="48" transform="translate(47.973 -0.027) rotate(90)"/><path d="M33.966,16.988H10.273l7.252-8.71A2,2,0,1,0,14.448,5.72L4.459,17.707a2.377,2.377,0,0,0-.18.3.253.253,0,0,1-.14.26,1.919,1.919,0,0,0,0,1.438.253.253,0,0,0,.14.26,2.377,2.377,0,0,0,.18.3L14.448,32.25a2,2,0,1,0,3.076-2.557l-7.252-8.71H33.966a2,2,0,0,0,0-4Z" transform="translate(3.991 4.987)"/></g></svg>