<svg xmlns="http://www.w3.org/2000/svg" xmlns:xlink="http://www.w3.org/1999/xlink" width="68" height="68" viewBox="0 0 68 68"><defs><style>.a{fill:#b865cf;}.b{fill:#7465cf;}.c{clip-path:url(#a);}.d{fill:#fff;opacity:0.5;}</style><clipPath id="a"><circle class="a" cx="34" cy="34" r="34" transform="translate(0.447 -0.375)"/></clipPath></defs><g transform="translate(-0.447 0.375)"><circle class="b" cx="34" cy="34" r="34" transform="translate(0.447 -0.375)"/><g class="c" transform="translate(0 0)"><path class="d" d="M256.535,260.544a14.119,14.119,0,0,0-1.905-3.99c-2.1-2.823-15.342-7.012-15.923-7.485a31.975,31.975,0,0,1-2.434-2.979h-.127v-2.746a15.579,15.579,0,0,0,1.8-2.831,12.886,12.886,0,0,0,.683-3.2c2.181-1,2.446-4.488,2.537-6.443.064-1.348-.872-.965-1.55-.519.221-.989.427-2.076.588-3.235.041-.3.07-.594.091-.885a27.851,27.851,0,0,0,.251-5.14l.79.32a12.51,12.51,0,0,0-2.576-4.272l.755-.47a8.665,8.665,0,0,0-4.045-1.463,11.68,11.68,0,0,0-4.236-2,30.512,30.512,0,0,0-7.186-.662q.142.655.285,1.31a8.944,8.944,0,0,0-3.4-1.428l.4,1.658-1.484-.232q.153.828.307,1.657l-.895-.337.073,3.125-.648-.494c.508,3.15-.906,6.35-.541,9.52a8.351,8.351,0,0,0,.451,1.9c.075.309.167.658.272,1.032-.656-.394-1.451-.627-1.392.619.092,1.956.356,5.446,2.54,6.445a12.9,12.9,0,0,0,.684,3.2,15.544,15.544,0,0,0,1.752,2.766v2.81h-.127a31.969,31.969,0,0,1-2.434,2.979c-.581.473-13.821,4.662-15.923,7.485a14.117,14.117,0,0,0-1.905,3.99,33.306,33.306,0,0,0,54.475,0Z" transform="translate(-194.848 -202.935)"/></g></g></svg>