<svg xmlns="http://www.w3.org/2000/svg" width="25.984" height="14.859" viewBox="0 0 25.984 14.859"><defs><style>.a{fill:#ff5242;}</style></defs><path class="a" d="M119.041,112.559a1.064,1.064,0,0,0-1.5,0l-11.8,11.792-5.982-5.982a1.064,1.064,0,0,0-1.5,0h0a1.064,1.064,0,0,0,0,1.5l6.724,6.724a1.074,1.074,0,0,0,1.516,0l12.55-12.55A1.052,1.052,0,0,0,119.041,112.559Z" transform="translate(-93.366 -112.046)"/><path class="a" d="M50.472,193.972h0a.94.94,0,0,1-1.335,0L42.6,187.438a.94.94,0,0,1,0-1.335h0a.94.94,0,0,1,1.335,0l6.534,6.534A.94.94,0,0,1,50.472,193.972Z" transform="translate(-42.325 -179.558)"/><path class="a" d="M186.19,118.882l-.049-.049a.91.91,0,0,1,0-1.285l7.507-7.507a.91.91,0,0,1,1.285,0l.049.049a.91.91,0,0,1,0,1.285l-7.507,7.507A.91.91,0,0,1,186.19,118.882Z" transform="translate(-174.046 -109.775)"/></svg>