<svg xmlns="http://www.w3.org/2000/svg" width="350.045" height="43" viewBox="0 0 350.045 43"><defs><style>.a{fill:#ff5242;}.b{fill:#ffb9b3;}.c{fill:#ff978d;}</style></defs><g transform="translate(-635 -158)"><path class="a" d="M21.6-141.084a14.809,14.809,0,0,1,9.185,2.726,11.614,11.614,0,0,1,4.488,7.382H27.684a5.853,5.853,0,0,0-2.307-2.537,7.05,7.05,0,0,0-3.733-.944,6.976,6.976,0,0,0-5.452,2.286,8.909,8.909,0,0,0-2.055,6.186q0,4.236,2.16,6.5a8.088,8.088,0,0,0,6.144,2.265,7.42,7.42,0,0,0,4.488-1.405,7.488,7.488,0,0,0,2.726-4.005H20.6v-5.159H35.653v7.088a14.46,14.46,0,0,1-2.684,4.823,13.819,13.819,0,0,1-4.718,3.607,14.942,14.942,0,0,1-6.564,1.384,15.594,15.594,0,0,1-7.843-1.908,13.073,13.073,0,0,1-5.18-5.347,16.479,16.479,0,0,1-1.824-7.843,16.479,16.479,0,0,1,1.824-7.843,13.11,13.11,0,0,1,5.159-5.347A15.39,15.39,0,0,1,21.6-141.084Zm25.248,10.947a10.177,10.177,0,0,1,3.46-3.4,8.833,8.833,0,0,1,4.592-1.258v7.675H52.849a7.088,7.088,0,0,0-4.425,1.216q-1.573,1.216-1.573,4.11v10.653H39.679v-23.4h7.172Zm22.019-4.7a13.161,13.161,0,0,1,6.228,1.447,10.608,10.608,0,0,1,4.32,4.173,12.532,12.532,0,0,1,1.573,6.375,12.532,12.532,0,0,1-1.573,6.375,10.608,10.608,0,0,1-4.32,4.173,13.16,13.16,0,0,1-6.228,1.447,13.285,13.285,0,0,1-6.249-1.447,10.575,10.575,0,0,1-4.341-4.173,12.532,12.532,0,0,1-1.573-6.375,12.532,12.532,0,0,1,1.573-6.375,10.575,10.575,0,0,1,4.341-4.173A13.286,13.286,0,0,1,68.87-134.834Zm0,6.207a4.57,4.57,0,0,0-3.46,1.489,6.032,6.032,0,0,0-1.4,4.3,5.954,5.954,0,0,0,1.4,4.278,4.6,4.6,0,0,0,3.46,1.468,4.534,4.534,0,0,0,3.439-1.468,6.011,6.011,0,0,0,1.384-4.278,6.09,6.09,0,0,0-1.384-4.3A4.5,4.5,0,0,0,68.87-128.627Zm50.077-5.914-6,23.4h-8.011L100.7-126.824l-4.278,15.686H88.414l-6-23.4h7.172l3.1,16.86,4.362-16.86h7.633l4.488,16.9,3.1-16.9ZM134.8-117.3v6.165h-3.229a9.293,9.293,0,0,1-6.4-2.034q-2.286-2.034-2.286-6.731v-8.6h-3.146v-6.039h3.146v-5.746h7.172v5.746h4.7v6.039h-4.7v8.724a2.629,2.629,0,0,0,.566,1.929,2.707,2.707,0,0,0,1.908.545Zm18.873-17.489a8.1,8.1,0,0,1,6.4,2.684,10.766,10.766,0,0,1,2.37,7.382v13.589h-7.172v-12.75a5.159,5.159,0,0,0-1.237-3.67,4.3,4.3,0,0,0-3.292-1.321,4.482,4.482,0,0,0-3.46,1.384A5.6,5.6,0,0,0,146-123.552v12.414h-7.172v-31.036H146v11.911a7.719,7.719,0,0,1,3-3.313A8.8,8.8,0,0,1,153.673-134.792Zm22.4-.042a8.472,8.472,0,0,1,4.613,1.216,7.063,7.063,0,0,1,2.81,3.313v-11.869h7.172v31.036h-7.172v-4.236a7.063,7.063,0,0,1-2.81,3.313,8.472,8.472,0,0,1-4.613,1.216,9.478,9.478,0,0,1-5.18-1.447,9.9,9.9,0,0,1-3.607-4.173,14.463,14.463,0,0,1-1.321-6.375,14.429,14.429,0,0,1,1.321-6.4,9.923,9.923,0,0,1,3.607-4.152A9.479,9.479,0,0,1,176.069-134.834Zm2.307,6.291a4.831,4.831,0,0,0-3.712,1.51,5.919,5.919,0,0,0-1.4,4.194,5.919,5.919,0,0,0,1.4,4.194,4.831,4.831,0,0,0,3.712,1.51,4.849,4.849,0,0,0,3.712-1.552,5.844,5.844,0,0,0,1.447-4.152,5.829,5.829,0,0,0-1.447-4.173A4.881,4.881,0,0,0,178.376-128.543Zm24.409-1.594a10.177,10.177,0,0,1,3.46-3.4,8.833,8.833,0,0,1,4.593-1.258v7.675h-2.055a7.088,7.088,0,0,0-4.425,1.216q-1.573,1.216-1.573,4.11v10.653h-7.172v-23.4h7.172Zm10.4-10.988a3.5,3.5,0,0,1,1.174-2.705,4.431,4.431,0,0,1,3.1-1.069,4.431,4.431,0,0,1,3.1,1.069,3.5,3.5,0,0,1,1.174,2.705,3.454,3.454,0,0,1-1.174,2.663,4.431,4.431,0,0,1-3.1,1.069,4.431,4.431,0,0,1-3.1-1.069A3.454,3.454,0,0,1,213.187-141.125Zm7.843,6.585v23.4h-7.172v-23.4Zm15.77,16.4,5.075-16.4h7.633l-8.3,23.4h-8.891l-8.3-23.4h7.633Zm37.914-5.326a9.9,9.9,0,0,1-.21,1.929H258.272a5.424,5.424,0,0,0,1.342,3.8,4.328,4.328,0,0,0,3.1,1.153,4.242,4.242,0,0,0,2.642-.8,3.721,3.721,0,0,0,1.384-2.055h7.591a9.919,9.919,0,0,1-2.013,4.425,10.73,10.73,0,0,1-3.942,3.062,12.483,12.483,0,0,1-5.326,1.111,12.577,12.577,0,0,1-6.1-1.447,10.339,10.339,0,0,1-4.173-4.173,12.948,12.948,0,0,1-1.51-6.375,13.065,13.065,0,0,1,1.489-6.4,10.2,10.2,0,0,1,4.173-4.152,12.7,12.7,0,0,1,6.123-1.447,12.7,12.7,0,0,1,6.123,1.426,10.074,10.074,0,0,1,4.089,4.005A11.923,11.923,0,0,1,274.713-123.468Zm-7.256-1.09a4.311,4.311,0,0,0-1.237-3.46,4.554,4.554,0,0,0-3.167-1.153A4.7,4.7,0,0,0,259.782-128a4.917,4.917,0,0,0-1.468,3.439Zm18.16-5.578a10.177,10.177,0,0,1,3.46-3.4,8.833,8.833,0,0,1,4.592-1.258v7.675h-2.055a7.088,7.088,0,0,0-4.425,1.216q-1.573,1.216-1.573,4.11v10.653h-7.172v-23.4h7.172Zm19.586-4.7a10.738,10.738,0,0,1,7.109,2.223,9.658,9.658,0,0,1,3.334,5.872h-6.71a3.717,3.717,0,0,0-1.321-2.244,4.012,4.012,0,0,0-2.579-.818,2.82,2.82,0,0,0-1.845.524,1.83,1.83,0,0,0-.629,1.489,1.747,1.747,0,0,0,1.153,1.636,18.388,18.388,0,0,0,3.628,1.09,36.022,36.022,0,0,1,4.4,1.279,7.264,7.264,0,0,1,2.978,2.118,5.853,5.853,0,0,1,1.258,3.942,6.046,6.046,0,0,1-1.09,3.565,7.179,7.179,0,0,1-3.146,2.433,12.291,12.291,0,0,1-4.865.881,12.528,12.528,0,0,1-7.591-2.1,8.848,8.848,0,0,1-3.481-6h6.92a3.114,3.114,0,0,0,1.279,2.307,4.816,4.816,0,0,0,2.873.8,2.675,2.675,0,0,0,1.845-.566,1.907,1.907,0,0,0,.629-1.489,1.79,1.79,0,0,0-1.153-1.74,21.209,21.209,0,0,0-3.754-1.111,30.01,30.01,0,0,1-4.278-1.174,7.063,7.063,0,0,1-2.894-2.034,5.666,5.666,0,0,1-1.216-3.838,6.262,6.262,0,0,1,2.391-5.1A10.417,10.417,0,0,1,305.2-134.834Z" transform="translate(669.063 310.9)"/><g transform="translate(396.55 -534.182)"><rect class="b" width="10" height="12" transform="translate(238.45 723.182)"/><rect class="c" width="10" height="12" transform="translate(248.45 723.182)"/><rect class="a" width="13" height="12" transform="translate(258.45 723.182)"/><rect class="b" width="10" height="10" transform="translate(248.45 713.182)"/><rect class="c" width="13" height="10" transform="translate(258.45 713.182)"/><rect class="b" width="13" height="11" transform="translate(258.45 702.182)"/><path class="b" d="M7.5,0,15,10H0Z" transform="translate(257.45 692.182)"/></g></g></svg>