<svg xmlns="http://www.w3.org/2000/svg" width="66.072" height="66.072" viewBox="0 0 66.072 66.072"><defs><style>.a{fill:#5ecb5e;}</style></defs><g transform="translate(-6 -6)"><path class="a" d="M39.036,6A33.036,33.036,0,1,0,72.072,39.036,33.036,33.036,0,0,0,39.036,6ZM55.554,28.16a2.541,2.541,0,0,1,.1,3.583L39.036,49.3a6.353,6.353,0,0,1-4.612,1.982h-.216a6.353,6.353,0,0,1-4.663-2.211l-7.166-8.335a2.541,2.541,0,1,1,3.812-3.316l7.166,8.335a1.279,1.279,0,0,0,1.893.051l16.645-17.56a2.541,2.541,0,0,1,3.659-.089Z" transform="translate(0 0)"/></g></svg>